<svg xmlns="http://www.w3.org/2000/svg" width="171" height="125" viewBox="0 0 171 125">
  <g fill="#FFF" fill-rule="evenodd" transform="translate(0 .007)">
    <path d="M73.8976269,53.8135131 C72.4821877,53.4738485 71.0095591,52.6324145 69.5396538,53.2243254 C68.2685499,53.6722415 67.8804786,55.153857 67.7545256,56.3529975 C67.5775106,57.8378129 67.6251685,59.3345428 67.6224452,60.8252134 C69.2033253,60.8642928 70.7903328,60.7531138 72.371213,60.8704203 C73.0772305,61.2821163 72.9301719,62.2618262 72.9662557,62.9562697 C73.0234451,63.5272112 72.68984,63.9870417 72.3255975,64.3806958 C70.7596956,64.3417525 69.1944745,64.3657857 67.6251685,64.3657857 C67.619041,71.1312309 67.619041,77.8993313 67.6285726,84.6647084 C66.5732909,85.1399256 65.3443983,85.1998384 64.2469053,84.8573825 C63.7029246,84.7402802 63.8445366,84.0846439 63.7900704,83.6849985 C63.7873471,77.2416525 63.7934746,70.800349 63.7873471,64.3567307 C62.6993857,64.2245822 61.3829388,64.7083097 60.4422402,64.0232617 C60.0784744,63.0854907 59.9313477,61.6578647 60.6916952,60.8885303 C61.7196077,60.7621688 62.7592985,60.8371959 63.7934746,60.8284132 C63.7934746,58.1564399 63.6552667,55.3671601 64.7010169,52.8515727 C65.3743547,51.2047885 66.8980453,49.9423312 68.6620679,49.6537967 C70.3573269,49.3562073 72.3201509,49.3594072 73.7628232,50.4173441 C74.3306328,51.4600986 74.066472,52.6983866 73.8976269,53.8135131 Z M55.4860245,80.6859559 C54.836856,82.7897111 53.0005296,84.406675 50.8968425,84.9744847 C48.0594282,85.7676481 44.8436104,85.4701267 42.3069854,83.9314578 C41.1469244,83.2942038 41.2551759,81.7793639 41.381265,80.6553187 C41.381265,80.2195895 41.736044,79.5973137 42.2378815,79.8771335 C43.4402218,80.481027 44.5191282,81.3497622 45.8443578,81.6956222 C47.4283698,82.1190966 49.2676918,82.1551804 50.6952497,81.2476381 C52.4447025,80.1235929 52.6068755,77.2110153 50.9026976,75.9671445 C48.6876272,74.2296742 45.6339823,73.8749634 43.6234323,71.8222702 C41.741831,69.9949308 41.4323271,67.043546 42.240809,64.6423376 C43.0434359,62.3219433 45.3395928,60.7741513 47.7169042,60.4616518 C49.7397091,60.1970144 51.8946625,60.4225723 53.6978326,61.4262474 C55.19749,62.1358052 55.1105484,64.2904862 54.3531285,65.5198554 C52.3484336,64.2875587 49.9620672,63.0945457 47.5637182,63.9179377 C45.3395928,64.5131166 44.7925483,67.7917748 46.5297463,69.2044907 C48.8410856,71.1761655 52.2042345,71.4648361 54.3169766,73.7306281 C56.0482513,75.5674991 56.2195474,78.3745485 55.4860245,80.6859559 Z M35.2530058,83.2431418 C31.9049713,85.984151 26.4530455,86.2694175 23.1951525,83.2370144 C20.7183722,80.7758251 20.0271967,77.106168 19.9790623,73.742883 C19.8889208,70.1780732 20.3878307,66.3286778 22.6871875,63.4610348 C25.6174666,59.7403837 31.7427302,59.3255559 35.2471506,62.4392497 C36.1907087,63.2025248 36.1337915,64.5312266 36.0375226,65.6253836 C36.0313952,66.0910692 35.6378091,66.394718 35.3792991,66.7371739 C34.0509377,65.9317557 32.9448663,64.7383342 31.4331582,64.2575342 C29.6417664,63.6774697 27.4328235,63.9059552 26.1014664,65.3455637 C24.4663925,67.1129904 24.0786616,69.6313692 23.9704101,71.9454999 C23.9012381,74.5782576 24.033727,77.4275183 25.545367,79.6878636 C26.9008934,81.7378335 29.8521419,82.2307522 31.9802707,81.1754705 C33.2094357,80.6464679 34.1381517,79.6633539 35.2229132,78.9212525 C35.8061776,78.5638184 36.1128221,79.3059197 36.1096222,79.7811369 C36.1997637,80.9650949 36.3441671,82.4499785 35.2530058,83.2431418 Z M85.6344022,62.6860495 C85.1142504,56.6200178 82.6741668,50.8521883 79.2625431,45.8605695 C73.7444409,37.7427978 65.9755248,31.5717145 58.3923384,25.4966959 C46.0637884,15.8656502 32.8035947,7.47098614 19.0745837,0 C18.8791183,0.478417078 18.6868528,0.956834156 18.4913874,1.43531932 C18.3863358,1.6969611 18.2780843,1.95574342 18.1788878,2.21745328 C13.4662719,14.6167413 8.891932,27.0793462 4.95777364,39.7557307 C3.21158875,45.4151045 1.2941078,51.071823 0.548670408,56.9721415 C-0.809851632,66.8985299 0.305002453,77.2729705 4.44660878,86.4403051 C6.26203377,90.4755662 8.81670063,94.158159 11.9243351,97.3022178 C19.0112668,104.47541 28.7372879,108.910317 38.760558,109.764755 C41.2732859,109.988066 43.7947284,109.858028 46.3103158,109.84305 C50.6593701,109.18469 55.0293938,108.335699 59.1048238,106.635674 C62.9247394,105.128323 66.3663195,102.847553 69.6479053,100.410193 C80.6153461,91.4355322 87.389574,76.9414078 85.6344022,62.6860495 L85.6344022,62.6860495 Z"></path>
    <path d="M.0748909614.251327648C1.24727492.0649172369 2.63548101-.27767487 3.69961349.413568704 3.94607284 1.36938162 3.82011986 2.37305667 3.8439488 3.35303894 3.83782136 13.5715021 3.84122549 23.7906461 3.8439488 34.0057733 3.85007624 34.4925645 3.82556647 35.135946 3.22780044 35.2503249 2.24536719 35.4607004 1.16353321 35.4967842.216502961 35.1182445-.0422112692 34.817319.0326796922 34.384313 8.67859383e-15 34.0241556.0211056346 24.1991423 8.67859383e-15 14.3741971.00885074998 4.55224748.00885074998 3.11849406-.0272330769 1.68188118.0748909614.251327648M59.7616255.167041275C60.8012483-.0223647744 62.0001845-.151313393 62.9621929.383476154 63.166441 7.34125496 62.9921493 14.3199352 63.0493387 21.2838414 65.5561435 18.2391834 68.0445659 15.1795472 70.5452432 12.1259023 71.5549095 10.6982763 73.6647921 10.8336247 75.1312933 11.3415897 75.5615759 12.0689852 74.935896 12.8322603 74.4824652 13.3731092 72.0954861 16.0544098 69.6676573 18.6987416 67.2902096 21.3859655 70.0945357 25.455268 72.9403923 29.5007415 75.7297402 33.5795756 76.1981491 34.1113014 76.3247829 35.2081136 75.3838801 35.277558 74.1189037 35.4069151 72.3542003 35.7405203 71.5521862 34.4687356 68.7056488 30.3572218 65.9047269 26.2130283 63.0432113 22.1103653 63.0370839 26.2817918 63.0792951 30.4566225 63.0282331 34.6253258 63.1038049 35.0848839 62.5986313 35.2476016 62.2527712 35.3102377 61.2465091 35.4967842 60.2034822 35.4007876 59.2503245 35.0276945 59.1693061 23.8655371 59.2441971 12.7000437 59.2142407 1.53768203 59.2476012 1.05688206 59.142073.314372221 59.7616255.167041275M25.6521968 20.9264073C21.9491791 20.9291306 18.2461615 20.9325347 14.546548 20.9264073 14.7147123 18.9397543 15.2525655 16.8414457 16.737449 15.4198791 18.5021524 13.6436698 21.6305521 13.5386182 23.5688664 15.0835506 25.2668487 16.4901391 25.6760257 18.8342261 25.6521968 20.9264073zM28.353718 15.4797919C27.3263502 13.1870392 25.2014893 11.3775374 22.7185136 10.8937418 20.2055814 10.4368388 17.4291692 10.6773069 15.2832027 12.1681817 12.6497642 13.8992522 11.3064927 17.0102908 10.8469345 20.0338432 10.4050778 23.2071775 10.5133293 26.5228046 11.5318464 29.5817599 12.3372646 32.0191203 14.1802631 34.1439811 16.6264743 35.0249712 19.8692529 36.193951 23.487848 35.8120071 26.6890962 34.6791111 27.4339208 34.3516333 28.4980533 34.0391338 28.5763484 33.074402 28.621283 32.2567289 28.9038261 31.0577927 28.1011312 30.5403642 26.7490089 30.8174608 25.5650509 31.6378572 24.1999929 31.9054222 21.7660367 32.4793593 18.865714 32.5692285 16.8429772 30.8685228 14.9373427 29.1909653 14.59761 26.4833166 14.5615262 24.0847634 18.991667 24.0759126 23.4218078 24.0970183 27.8519485 24.0820401 28.5640935 24.1296979 29.3940215 23.6640123 29.4205738 22.882423 29.6132478 20.3851499 29.3878941 17.788476 28.353718 15.4797919L28.353718 15.4797919zM47.5680154 29.062289C46.4201412 30.3544985 45.1905678 31.7672144 43.4537783 32.2294958 42.0410624 32.5876108 40.315847 32.3772353 39.3272863 31.2075746 38.2481756 29.9187693 38.1637531 27.9770509 38.9215135 26.5098689 39.5131521 25.3831003 40.7454488 24.7764835 41.9450658 24.5116418 43.7962342 24.1269746 45.6957413 24.2502043 47.5714195 24.2379494 47.5714195 25.8460626 47.5741428 27.4541758 47.5680154 29.062289zM51.3697529 18.4012202C51.3282225 15.77459 50.4199993 12.7873257 47.86826 11.5730028 44.7126273 10.1693419 40.9442503 10.5001557 37.8485302 11.9216542 36.8865218 12.3965991 35.6480976 12.9495667 35.552101 14.175736 35.5282721 14.9781586 35.359427 16.1293008 36.2465445 16.5466477 37.9295486 15.8195245 39.4232829 14.6175927 41.2771746 14.3018932 43.0745577 13.9984487 45.3137974 13.9893937 46.5671998 15.5431088 47.781795 17.1423712 47.5557605 19.2699554 47.5714195 21.1544843 44.6404596 21.1544843 41.5869509 21.0435095 38.824836 22.1852563 36.9253289 22.9430166 35.2995142 24.5327475 34.7916174 26.552761 34.1693416 28.9656116 34.5152016 31.7971707 36.2431404 33.6905504 37.8812099 35.4423181 40.4806071 35.9563424 42.7831638 35.6411195 44.9018971 35.3435982 46.6904295 34.0091774 48.1031453 32.4732319 48.1392292 33.3508178 47.9411085 34.2917206 48.277437 35.135946 49.0467714 35.4729553 49.9420588 35.4518497 50.7536045 35.2925362 51.5202157 35.1965396 51.3697529 34.2706149 51.4119642 33.7143794 51.3697529 28.6109007 51.4541754 23.5046988 51.3697529 18.4012202L51.3697529 18.4012202z" transform="translate(93.836 50.268)"></path>
    <path d="M55.4193278.183129771C56.9675282-.195409998 58.7615071-.0299690559 59.981549 1.08522544 62.1424936 2.85809875 62.3528692 6.41065362 60.4445113 8.44496447 58.9385221 10.1824348 56.1437276 10.5759527 54.2564754 9.23540452 51.8878785 7.72124545 51.3466211 4.15303155 53.0207745 1.94170571 53.613094 1.12675588 54.4573193.489501885 55.4193278.183129771M41.9273807.796554827C44.109431.213086155 46.516835 1.60741969 47.1064311 3.77789592 48.0105692 6.32623109 45.9912366 9.35591089 43.2924387 9.49411875 40.863929 9.74330141 38.5852013 7.5530812 38.6396675 5.13342232 38.5640957 3.15562011 39.9951939 1.24453894 41.9273807.796554827M29.5873927 3.18898063C31.8919918 2.02544742 34.9094168 3.77449178 35.1320472 6.32010364 35.4656524 8.28292766 34.1285083 10.3206426 32.2106188 10.8135613 30.2934102 11.3759244 28.1113599 10.1763073 27.4924883 8.29177841 26.7347279 6.37729311 27.717842 4.02435526 29.5873927 3.18898063M69.2986654 5.93271313C72.3916621 5.0190434 75.7692445 7.64295035 75.7637979 10.8312628 75.9585144 12.6708572 75.1381179 14.5376846 73.6661701 15.649475 72.3583016 16.7707969 70.4771768 16.7047567 68.8901693 16.3861297 66.2662623 15.4690558 64.8024844 12.3161463 65.6167534 9.68951608 66.0831199 7.91051533 67.5162605 6.41678107 69.2986654 5.93271313M19.044107 7.66405599C20.8857438 6.76264114 23.3054027 7.80498716 23.9460608 9.74330141 24.7365009 11.676169 23.3809745 14.0175328 21.3881941 14.4716444 19.3055445 15.0660063 16.9607766 13.3142386 16.9492026 11.153294 16.7987398 9.68338864 17.7457701 8.28020435 19.044107 7.66405599M1.30856569 8.85414145C2.85880859 8.00651193 4.98094611 9.40084546 4.78554878 11.1655488 4.81005855 12.8696586 2.7451105 14.0175328 1.27520517 13.2209653-.426181305 12.4455035-.435032055 9.5812646 1.30856569 8.85414145M9.1585001 9.81002244C11.2057467 8.69210464 13.7629326 10.7502444 13.4592838 12.9629319 13.5103458 15.0905161 10.9436283 16.782371 9.05637606 15.6617298 6.7660743 14.567641 6.82326376 10.8196888 9.1585001 9.81002244" transform="translate(93.367 90.252)"></path>
    <path d="M39.2005246.431561021C39.3693697-.127397881 40.0692598.016256599 40.504989.0496171182 40.965228.458113271 40.7548525 1.1314511 40.8508491 1.6727085 40.3695045 1.73534458 39.8861173 1.89806221 39.4054535 1.78368329 39.0895498 1.40242021 39.0922732.884991751 39.2005246.431561021M57.0987836.169442656C57.498429-.0797399969 58.0424097-.0348054201 58.4509058.178974233 58.733449.689594425 58.5319242 1.26693565 58.465884 1.80819306 57.9913477 1.80819306 57.5161305 1.81091636 57.0443174 1.81363967 56.9932554 1.26353152 56.7406686.671892925 57.0987836.170123483L57.0987836.169442656M52.0824508 1.19749131C52.5304349 1.18251312 52.9811424 1.18864056 53.4318498 1.21859694 53.4318498 1.92189115 53.4318498 2.62518536 53.4345731 3.32847957 55.1060032 3.35843596 56.786284 3.22975967 58.4509058 3.4428585 58.4747348 6.22880226 58.4903938 9.01202272 58.4420551 11.7952432 57.9852202 11.7952432 57.5283854 11.7952432 57.0742738 11.7952432 56.9966595 9.39941324 57.0565723 7.00426412 57.03819 4.60571088 55.8365305 4.60298757 54.6341901 4.60298757 53.4318498 4.60571088 53.49789 6.37586088 53.2752596 8.17052064 53.5639302 9.92569245 53.7681783 10.8904242 54.8717987 10.5295859 55.5417324 10.3886548 55.4545866 10.7910235 55.6710895 11.3350042 55.3429309 11.6475037 54.1896101 12.3603295 52.2805715 11.7952432 52.1573418 10.3076363 51.9680719 8.43468149 52.1301087 6.54742926 52.0790467 4.67175109 51.6644231 4.62409321 51.2559269 4.55805299 50.8501541 4.49133196 50.8474308 4.10121813 50.8413033 3.71042348 50.8501541 3.32575627 51.2559269 3.32235213 51.6678272 3.31962882 52.0763234 3.32235213 52.0763234 2.61293048 52.0763234 1.90418965 52.0824508 1.19749131M9.98419894 3.29239575C10.9312292 3.0459364 12.0525511 3.13035894 12.8334596 3.77033625 12.8994998 4.18836398 12.930137 4.60911501 12.930137 5.03258936 12.1063365 4.74732288 11.2287505 4.12164294 10.3361865 4.51311842 9.62063736 4.71736649 9.4851528 5.76583995 10.0141553 6.2322064 10.8291051 6.87831114 11.9136624 7.08868666 12.6891243 7.79810832 13.7981914 8.93100431 13.3474839 11.143011 11.8448989 11.7019699 10.6398353 12.2221217 9.28090473 11.8973672 8.17796511 11.2839422 8.2079215 10.8209798 8.23515457 10.3586984 8.26238765 9.89573606 9.17878069 10.3253378 10.2333816 11.0163772 11.270281 10.5268626 11.9109391 10.2742758 12.0668485 9.38171174 11.679458 8.86155997 10.8195736 8.03231278 9.44906897 7.90567897 8.73420071 6.91099084 7.84435992 5.68754486 8.4938688 3.67433965 9.98419894 3.29239575M16.5153716 3.47894232C17.4651252 3.00712927 18.6790396 3.05819129 19.5865818 3.59876786 20.1189885 3.88131103 19.7853833 4.57303119 19.8786566 5.0387168 19.0609835 4.73234469 18.1772701 4.11006888 17.2874293 4.51856503 16.6746851 4.74459957 16.5541787 5.47444603 16.7917873 6.02455418 17.5645259 6.84767393 18.7784403 7.01039157 19.6199424 7.7470463 20.5846741 8.67229008 20.4675719 10.3852506 19.5205416 11.2750914 18.4210062 12.1765062 16.7679584 12.1288484 15.5567673 11.4854669 14.928364 11.2029238 15.2892023 10.4002288 15.1809508 9.87463043 16.1095988 10.2831266 17.1437748 10.9952715 18.189525 10.5540957 18.8383531 10.3192104 19.0310271 9.50766472 18.736229 8.93100431 17.92196 8.0833748 16.5991133 7.94789024 15.8270556 7.0491987 14.9133858 5.97621547 15.2592459 4.12504707 16.5153716 3.47894232M31.9544837 4.78340671C32.8021132 2.9472165 35.5403991 2.65241844 36.9013721 4.05900686 37.1090243 4.51311842 36.9497108 5.02373861 36.9435834 5.50440242 36.327435 5.14696828 35.7385197 4.71736649 35.0563312 4.50358684 34.2325306 4.29321132 33.4032834 4.86714842 33.1234635 5.63103622 32.6938617 6.73669914 32.6938617 7.98397406 32.9825324 9.12299751 33.1990353 10.021689 34.1093009 10.8209798 35.0740327 10.5929028 35.780731 10.3614217 36.3723696 9.89233193 37.0096236 9.52264291 37.0307292 9.98560521 37.0334525 10.4485675 37.0130277 10.9142531 35.7174141 12.3930092 32.8681534 12.3542021 31.9422288 10.4812472 31.1157049 8.71722466 31.1218324 6.54470595 31.9544837 4.78340671M71.6664372 4.47022632C72.4269209 3.75808136 73.3494414 2.97104544 74.4762099 3.18142096 75.7902059 3.25018448 76.6160489 4.58188194 76.6310271 5.80192378 76.6882166 7.80355493 76.6344313 9.80859022 76.6405587 11.8102214 76.1952979 11.8040939 75.7534412 11.7952432 75.3149887 11.7857116 75.2639267 10.0850059 75.3265628 8.38361947 75.2911598 6.68563713 75.2577992 5.94353578 75.1223147 5.02986605 74.401319 4.64179471 73.3460372 4.17610909 72.438495 5.17692467 71.9067691 5.96123728 71.72635 7.90023235 71.9156199 9.85965223 71.8169 11.8068172 71.3750433 11.8040939 70.9359099 11.8040939 70.4974574 11.8040939 70.4790751 8.9786622 70.4852025 6.15118799 70.4940533 3.32575627 70.8909754 3.32847957 71.2933441 3.33460702 71.6963936 3.34345777 71.6902662 3.62327763 71.6718838 4.18836398 71.6664372 4.47022632M39.321031 3.34958521C39.7628877 3.34073446 40.2074676 3.33460702 40.6554518 3.32847957 40.6527285 6.16003874 40.6881315 8.99364039 40.6343461 11.8279229 40.1986169 11.8129447 39.7628877 11.7979665 39.3298817 11.7829883 39.281543 8.97253476 39.3026487 6.16276205 39.321031 3.34958521M26.7488811 10.3736766C25.6370907 11.0946723 24.0500831 10.3525709 23.7825182 9.08419037 23.4400622 7.58432866 23.3706179 5.44176634 24.9726036 4.63294396 25.6820253 4.28708388 26.6379063 4.42529174 27.1696321 5.03258936 27.8279917 5.70592718 27.9117334 6.71014689 27.9389665 7.60203016 27.9389665 8.62735551 27.6959113 9.80518608 26.7488811 10.3736766zM29.3789155 7.30791293C29.3394275 6.12667822 29.0875215 4.84059617 28.2099356 3.9841159 27.284011 3.13035894 25.8896775 3.01938415 24.7084428 3.29579988 22.0607069 4.08623994 21.7747596 7.49445951 22.4508207 9.74527331 23.1037337 12.1710596 26.5929717 12.6905306 28.2187864 10.9625918 29.1413069 9.9978601 29.3911703 8.59399499 29.3789155 7.30791293L29.3789155 7.30791293zM65.8113257 10.0911334C65.0930533 10.8482129 63.713698 10.8332347 63.0226586 10.0516454 62.4065103 9.41166812 62.3043862 8.46804201 62.2859764 7.6231358 62.2832806 6.56853489 62.4814012 5.32398328 63.473366 4.73847213 64.2181907 4.25100005 65.3218111 4.38035717 65.904599 5.06867319 66.553427 5.73588357 66.6201481 6.74010328 66.6412537 7.6231358 66.6078932 8.48914764 66.4996417 9.47770833 65.8113257 10.0911334zM67.230169 4.34767748C66.3859436 3.19912246 64.7778304 2.97717288 63.473366 3.28082169 62.1600509 3.59876786 61.2463812 4.79566159 61.0149 6.08719026 60.7384843 7.5877328 60.7439309 9.27005612 61.5650082 10.607881 62.5202084 12.0716589 64.6362184 12.3031401 66.1149745 11.5698895 67.2689761 10.9864208 67.8435941 9.70306204 68.0056309 8.48029689 68.18605 7.07643178 68.0655436 5.5343588 67.230169 4.34767748L67.230169 4.34767748zM2.3534908 10.6923036C1.32544214 10.4873747 1.14842714 9.00589527 1.91776157 8.40200179 2.6748411 7.80695907 3.69676231 8.02005789 4.58932641 7.98125076 4.58932641 8.52795478 4.59204971 9.07533962 4.60158129 9.62204364 3.99156037 10.1810025 3.26988383 10.9625918 2.3534908 10.6923036zM5.93327875 5.79307303C5.94825694 4.80995896 5.49686869 3.71655092 4.50218056 3.37681829 3.25830977 2.97376875 1.79112776 3.14533713.70929378 3.88743848.222502531 4.18836398.468961876 4.84331947.39066678 5.30355847 1.46637332 4.91821044 2.62990653 4.07670836 3.80229049 4.60298757 4.63153768 5.02033447 4.53554108 6.06676545 4.64651587 6.84222732 3.41762327 6.86605626 2.05869274 6.7305717.995241087 7.46722643-.525726256 8.45919126-.255437968 11.1790948 1.4786282 11.7891157 2.62990653 12.2697795 3.871054 11.7618827 4.72140683 10.950337 4.7459166 11.1695632 4.78812787 11.6086966 4.80855268 11.8279229 5.18164583 11.8129447 5.55133485 11.8013706 5.92374717 11.791839 5.94485281 9.79361202 5.96868175 7.79198087 5.93327875 5.79307303L5.93327875 5.79307303zM45.3286478 10.6888994C44.2978758 10.4846513 44.1269882 8.99091708 44.9051734 8.39247022 45.6656571 7.80968237 46.6787275 8.02005789 47.5678875 7.98125076 47.5678875 8.53135891 47.5678875 9.08078624 47.5774191 9.63089439 46.9667173 10.18713 46.2457216 10.9625918 45.3286478 10.6888994zM48.8907342 5.49282836C48.8635011 4.53081992 48.2684584 3.55996073 47.3010033 3.31690552 46.0142405 2.99487438 44.5021239 3.18414427 43.4713519 4.0651343 43.3842061 4.47022632 43.3481222 4.88280744 43.3665046 5.30628178 44.4422111 4.91821044 45.6023402 4.0801125 46.7747241 4.59958344 47.6100988 5.01148372 47.5141022 6.06336132 47.625077 6.84222732 46.3927802 6.86946039 45.0311264 6.72784839 43.9676747 7.47335387 42.4528348 8.46804201 42.7292506 11.1790948 44.4571893 11.7891157 45.6084676 12.2697795 46.8496151 11.7618827 47.7006487 10.9537411 47.7244777 11.1695632 47.766689 11.6086966 47.7871138 11.8251996 48.1568028 11.8129447 48.5298959 11.8040939 48.9023083 11.791839 48.9145632 9.69421129 48.9744759 7.5904561 48.8907342 5.49282836L48.8907342 5.49282836z" transform="translate(92.86 112.726)"></path>
  </g>
</svg>