<svg xmlns="http://www.w3.org/2000/svg" width="160" height="118" viewBox="0 0 160 118">
  <g fill="#4C98C6" fill-rule="evenodd" transform="translate(0 .007)">
    <path d="M69.5487856,50.6466126 C68.2166443,50.3269371 66.8306792,49.5350211 65.4472772,50.0920984 C64.2509772,50.5136548 63.8857436,51.9080779 63.7672029,53.0366495 C63.6006052,54.4340842 63.6454584,55.8427323 63.6428954,57.2456775 C65.1307414,57.2824572 66.6243543,57.177821 68.1122004,57.288224 C68.7766691,57.675692 68.6382648,58.5977464 68.6722251,59.2513222 C68.726049,59.788664 68.4120763,60.2214337 68.0692694,60.5919215 C66.5955201,60.55527 65.1224116,60.5778888 63.6454584,60.5778888 C63.6396916,66.9451907 63.6396916,73.3149915 63.6486622,79.6822293 C62.6554834,80.1294802 61.4989105,80.1858671 60.4660045,79.8635646 C59.9540368,79.7533537 60.087315,79.1363013 60.0360541,78.7601748 C60.0334911,72.6960168 60.0392579,66.633781 60.0334911,60.5693667 C59.0095557,60.4449951 57.7705811,60.9002555 56.8852422,60.2555222 C56.5428838,59.3729386 56.4044155,58.0293277 57.1200169,57.3052683 C58.0874372,57.1863431 59.0659426,57.2569549 60.0392579,57.2486891 C60.0392579,54.7339602 59.9091835,52.1088282 60.8933918,49.741282 C61.527104,48.1914103 62.9611261,47.003248 64.6213368,46.7316936 C66.2168306,46.4516172 68.0641433,46.4546288 69.421915,47.4503066 C69.9563093,48.4316955 69.7076942,49.5971108 69.5487856,50.6466126 Z M52.2206975,75.9376245 C51.6097323,77.9175747 49.8814728,79.4393811 47.9015868,79.9737754 C45.231153,80.7202614 42.2045845,80.4402491 39.8172388,78.9921302 C38.7254469,78.3923783 38.8273278,76.966686 38.9459966,75.9087903 C38.9459966,75.4987035 39.279897,74.9130484 39.7522016,75.176401 C40.8837848,75.7447556 41.899198,76.5623661 43.1464385,76.8878725 C44.637232,77.2864255 46.3683108,77.3203858 47.7118576,76.466252 C49.3583559,75.4083563 49.5109851,72.6671826 47.9070973,71.496513 C45.8223828,69.861292 42.9484435,69.5274558 41.0562134,67.5955627 C39.2853434,65.8757613 38.9940537,63.0980642 39.7549569,60.8381658 C40.5103495,58.6543256 42.6713786,57.1976205 44.9087864,56.9035114 C46.8125501,56.6544478 48.8406854,56.8667317 50.5377398,57.811341 C51.9491431,58.4791416 51.867318,60.5070207 51.1544719,61.6640421 C49.2677524,60.5042654 47.0218225,59.3814607 44.7646152,60.1563965 C42.6713786,60.7165494 42.1565275,63.8022601 43.7914922,65.1318383 C45.9668102,66.9874809 49.1320393,67.2591634 51.1204475,69.3916145 C52.7498375,71.1203866 52.9110529,73.7622424 52.2206975,75.9376245 Z M33.1783826,78.3443212 C30.0273784,80.9240233 24.8962959,81.192502 21.8301284,78.3385544 C19.4991055,76.0222049 18.8486054,72.5685055 18.8033036,69.4031482 C18.7184669,66.0481259 19.1880163,62.4252656 21.352057,59.7263821 C24.1098905,56.2246897 29.8746852,55.8342742 33.172872,58.7647286 C34.0609021,59.4830853 34.0073345,60.7335936 33.916731,61.7633599 C33.9109641,62.2016402 33.5405405,62.4874194 33.2972437,62.809722 C32.0470557,62.0517022 31.0060761,60.928513 29.5833313,60.4760079 C27.8973621,59.9300799 25.8184144,60.1451191 24.5654071,61.5000074 C23.0265566,63.1634218 22.6616434,65.5335951 22.5597625,67.7115403 C22.4946612,70.1893615 22.6193532,72.8709444 24.0420339,74.9982695 C25.3177882,76.9275996 28.0953571,77.3915103 30.0982465,76.3983314 C31.2550757,75.9004604 32.1291372,74.9752022 33.150061,74.2767731 C33.6990006,73.9403738 33.9875991,74.6388029 33.9845875,75.0860537 C34.0694242,76.2003364 34.2053296,77.5978352 33.1783826,78.3443212 Z M80.5948571,58.9970043 C80.105316,53.2879558 77.8088301,47.8595604 74.5979789,43.1616961 C69.4046144,35.5216515 62.0928956,29.7137336 54.9559762,23.9962271 C43.3529556,14.931964 30.8731183,7.03132205 17.9520532,0 C17.7680909,0.450262453 17.5871401,0.900524906 17.4031777,1.35085144 C17.3043084,1.59709572 17.2024274,1.84064882 17.1090686,2.08695718 C12.673788,13.7565528 8.3686459,25.4857391 4.66601094,37.4161242 C3.02258823,42.7424465 1.21795016,48.0662698 0.516381407,53.6193572 C-0.762192236,62.9615822 0.287053199,72.7254918 4.1849279,81.3533329 C5.89351596,85.1511208 8.29784185,88.6169947 11.2225935,91.576027 C17.8924625,98.3270804 27.0461117,102.500995 36.479517,103.305149 C38.844372,103.515319 41.2174288,103.392933 43.584975,103.378837 C47.6780895,102.759221 51.7909393,101.960193 55.6265321,100.360214 C59.2216475,98.9415698 62.4606921,96.7950219 65.5491581,94.501099 C75.8711701,86.0545932 82.2467378,72.4134414 80.5948571,58.9970043 L80.5948571,58.9970043 Z"></path>
    <path d="M.0704836628.236537132C1.17387337.0610968874 2.48038417-.261333832 3.48189294.389230376 3.71384827 1.28879414 3.59530756 2.23340337 3.61773418 3.15571414 3.61196734 12.7728255 3.61517114 22.3905776 3.61773418 32.0045492 3.62350103 32.462693 3.60043365 33.0682117 3.03784587 33.1758595 2.11322836 33.3738545 1.09505982 33.4078148.203761862 33.0515519-.0397271554 32.7683358.0307565074 32.360812 0 32.0218497.0198635777 22.7750339 0 13.5282822.00832988742 4.28434981.00832988742 2.93497212-.0256304228 1.58290324.0704836628.236537132M56.2446814.157210973C57.2231228-.0210486178 58.3515021-.14240867 59.2568968.360908758 59.449125 6.90922549 59.2850903 13.4772136 59.3389142 20.0312971 61.6981946 17.1658159 64.0401745 14.2862379 66.3936881 11.4122986 67.343936 10.0686877 69.329653 10.1960709 70.7098513 10.6741424 71.1148119 11.358731 70.525953 12.0770876 70.0992064 12.5861078 67.8526999 15.1096152 65.5677477 17.5983293 63.3302118 20.1274112 65.9695046 23.9572372 68.6478837 27.7646365 71.2730798 31.603433 71.7139231 32.1038671 71.8331045 33.1361323 70.9475734 33.2014899 69.7570403 33.3232344 68.0961889 33.6372071 67.3413729 32.4402664 64.662353 28.5707133 62.026264 24.6704037 59.3331473 20.8091805 59.3273805 24.7351205 59.3671076 28.6642643 59.3190506 32.5876413 59.390175 33.0201547 58.9147307 33.1732964 58.5892243 33.2322464 57.6421802 33.4078148 56.660535 33.3174676 55.7634702 32.9663308 55.6872197 22.4610612 55.7577033 11.9526519 55.7295099 1.44719015 55.7609071.994685039 55.6615893.295871561 56.2446814.157210973M24.1425768 19.6948978C20.65748 19.6974609 17.1723833 19.7006647 13.6904904 19.6948978 13.8487582 17.8251585 14.3549591 15.8503344 15.7524579 14.5124263 17.4133093 12.8407461 20.3576041 12.7418767 22.1818494 14.1958906 23.7799063 15.519702 24.1650034 17.7258406 24.1425768 19.6948978zM26.6851147 14.5688133C25.718207 12.410988 23.7183933 10.7079745 21.3815395 10.2526501 19.0164922 9.82263565 16.4034706 10.0489523 14.3837933 11.4520898 11.9053314 13.0812876 10.6411108 16.009243 10.2085974 18.8548607 9.7927438 21.8414458 9.89462473 24.9619497 10.8532025 27.840887 11.6112223 30.1348098 13.3457612 32.1346236 15.6480139 32.9637677 18.6999565 34.0639536 22.1055989 33.704487 25.1184551 32.6382614 25.8194472 32.3300555 26.820956 32.0359464 26.8946434 31.1279887 26.9369336 30.3584353 27.2028493 29.2300559 26.4473926 28.7430779 25.1748421 29.0038674 24.0605594 29.7759839 22.7758345 30.0278028 20.4851154 30.567964 17.7554754 30.6525444 15.8517758 29.0519245 14.0582869 27.4730904 13.7385474 24.9247856 13.7045871 22.6673861 17.8740161 22.6590562 22.0434452 22.6789198 26.2128742 22.6648231 26.8831097 22.7096763 27.6641969 22.2713961 27.6891865 21.535803 27.8705218 19.1854932 27.65843 16.7416324 26.6851147 14.5688133L26.6851147 14.5688133zM44.7686596 27.3519867C43.6883372 28.5681502 42.5311236 29.8977284 40.8965434 30.3328048 39.5669652 30.6698449 37.943278 30.4718499 37.0128936 29.3710232 35.9972881 28.1580635 35.9178338 26.3306143 36.6310003 24.9497753 37.1878212 23.8893165 38.3475979 23.3183989 39.476618 23.069143 41.218846 22.7071133 43.006568 22.8230909 44.7718634 22.8115573 44.7718634 24.3250337 44.7744264 25.8385102 44.7686596 27.3519867zM48.3466666 17.3183169C48.3075802 14.8462626 47.4528056 12.0347974 45.051235 10.8919369 42.0813097 9.57088082 38.5347 9.88222638 35.6211616 11.2200704 34.715767 11.667065 33.5502235 12.1874907 33.4598762 13.3415005 33.4374496 14.0967009 33.278541 15.1800989 34.113452 15.5728851 35.6974122 14.8885528 37.1032409 13.7573541 38.8480319 13.4602334 40.5396398 13.1746464 42.6471013 13.1661243 43.8267415 14.628404 44.9698584 16.1335506 44.7571259 18.1359274 44.7718634 19.9095526 42.0133891 19.9095526 39.1395779 19.8051087 36.5400123 20.8796641 34.7522903 21.5928307 33.2221541 23.0890066 32.7441467 24.9901432 32.1584915 27.2609987 32.4839979 29.9259219 34.1102482 31.707877 35.6519182 33.356554 38.098342 33.8403282 40.2653943 33.5436561 42.2594412 33.2636437 43.9427192 32.007753 45.2722974 30.5621971 45.3062577 31.3881375 45.1197964 32.2736686 45.4363321 33.0682117 46.1603915 33.3853882 47.0029917 33.3655246 47.7667783 33.2155866 48.4882747 33.1252394 48.3466666 32.253805 48.3863937 31.7303036 48.3466666 26.9271624 48.4261209 22.1214581 48.3466666 17.3183169L48.3466666 17.3183169z" transform="translate(88.314 47.31)"></path>
    <path d="M52.1579258.172352668C53.6150154-.183910209 55.3034195-.0282053907 56.4516624 1.02136042 58.4854365 2.68990095 58.6834315 6.03338961 56.8873796 7.94798219 55.4700172 9.58320317 52.8396951 9.95356278 51.0635068 8.69190522 48.8343008 7.26685371 48.3248961 3.90862756 49.9005264 1.82743722 50.4579881 1.06044682 51.2525312.460694925 52.1579258.172352668M39.4599736.749677942C41.5136112.200546133 43.7793406 1.51282378 44.3342393 3.55556848 45.1851693 5.9539353 43.2846735 8.80531984 40.7446986 8.93539423 38.4591056 9.1699126 36.31448 7.10858585 36.3657408 4.83132278 36.2946164 2.96991332 37.6414951 1.1712984 39.4599736.749677942M27.8461883 3.00131059C30.0151628 1.90625077 32.8550137 3.55236468 33.0645424 5.94816845 33.378515 7.79548118 32.1200613 9.71327757 30.3150387 10.1771882 28.510657 10.7064565 26.4570194 9.57743633 25.874568 7.80381107 25.1614015 6.00199234 26.0866597 3.78752381 27.8461883 3.00131059M65.2204708 5.58357569C68.1314461 4.723675 71.3102593 7.19316624 71.3051332 10.193848 71.4883907 11.9251831 70.7162743 13.6821485 69.3309499 14.7285106 68.1000488 15.7838432 66.3296274 15.7216894 64.8360145 15.4218135 62.3665233 14.558709 60.988888 11.5913468 61.7552377 9.11929252 62.1941587 7.44498515 63.5429597 6.03915645 65.2204708 5.58357569M17.9233701 7.21302982C19.6566274 6.36466282 21.9338905 7.34566726 22.5368462 9.1699126 23.2807692 10.9890319 22.0050149 13.1926075 20.1295087 13.6199948 18.1694221 14.1793787 15.9626427 12.5307018 15.9517498 10.4969277 15.8101417 9.11352567 16.7014397 7.79291814 17.9233701 7.21302982M1.2315572 8.3330793C2.69056902 7.53533239 4.68781972 8.84761004 4.50392144 10.5084614 4.52698882 12.1122851 2.58356201 13.1926075 1.20015994 12.4429176-.401100731 11.7130913-.409430619 9.01741159 1.2315572 8.3330793M8.61952658 9.23270714C10.5462936 8.18057828 12.9529903 10.1175975 12.6672111 12.2000693 12.7152682 14.2024461 10.2996008 15.7947361 8.5234125 14.7400442 6.36789394 13.710342 6.42171783 10.1829551 8.61952658 9.23270714" transform="translate(87.872 84.941)"></path>
    <path d="M36.8935918.406163854C37.0525004-.119900575 37.7112023.0152999057 38.121289.0466971736 38.5544432.431153516 38.3564482 1.06486572 38.4467954 1.57427037 37.9937777 1.63322035 37.5388377 1.78636212 37.0864607 1.67871435 36.7891478 1.31988843 36.7917109.832910394 36.8935918.406163854M53.7385464.159471034C54.1146729-.0750473348 54.6266406-.0327571371 55.0110969.168441682 55.2770126.64901211 55.0873474 1.19237707 55.0251937 1.70178173 54.5785835 1.70178173 54.1313327 1.70434477 53.6872856 1.70690781 53.6392286 1.18917327 53.4015064.632352335 53.7385464.160111795L53.7385464.159471034M49.0174226 1.1270195C49.439043 1.11292276 49.8632265 1.11868961 50.28741 1.14688307 50.28741 1.80878874 50.28741 2.47069441 50.289973 3.13260008 51.8630403 3.16079355 53.4444373 3.0396898 55.0110969 3.24024786 55.0335236 5.86224011 55.048261 8.48166933 55.002767 11.1010985 54.5728167 11.1010985 54.1428664 11.1010985 53.7154791 11.1010985 53.6424324 8.84626209 53.6988193 6.5920664 53.6815187 4.33466691 52.5505763 4.33210387 51.4189932 4.33210387 50.28741 4.33466691 50.3495638 6.0006444 50.1400351 7.68968926 50.4117176 9.34157001 50.6039457 10.2495277 51.6426186 9.90992464 52.273127 9.7772872 52.1911097 10.1559767 52.3948715 10.6679444 52.0860249 10.9620535 51.0005765 11.6329298 49.2038839 11.1010985 49.0879062 9.70103669 48.9097748 7.93830436 49.0622758 6.16211606 49.0142188 4.39682069 48.6239956 4.35196745 48.2395392 4.28981367 47.8576459 4.22701914 47.8550829 3.85986333 47.849316 3.49206676 47.8576459 3.13003704 48.2395392 3.12683324 48.6271994 3.1242702 49.0116557 3.12683324 49.0116557 2.45916072 49.0116557 1.79212897 49.0174226 1.1270195M9.39663342 3.09863977C10.2879314 2.86668445 11.343264 2.94613876 12.0782164 3.54845369 12.1403702 3.94188068 12.1692044 4.33787072 12.1692044 4.73642379 11.3938841 4.46794511 10.5679437 3.87908615 9.72790664 4.24752348 9.05446728 4.43975165 8.92695592 5.42652293 9.42482689 5.86544392 10.1918173 6.4735257 11.2125489 6.67152071 11.9423752 7.33919323 12.9861741 8.40541882 12.5619906 10.4872499 11.1478321 11.0133143 10.0136859 11.5028554 8.73472775 11.1972126 7.69669563 10.6198874 7.72488909 10.1841702 7.75051952 9.74909374 7.77614994 9.31337655 8.63861367 9.71769647 9.63115179 10.3680684 10.6070301 9.9073616 11.2099858 9.66963943 11.35672 8.82960232 10.9921272 8.34006124 10.1828466 7.55961487 8.89299561 7.4404334 8.22019701 6.50428221 7.38272295 5.35283546 7.99400853 3.45810645 9.39663342 3.09863977M15.5434496 3.27420817C16.4373106 2.83016109 17.5797867 2.87821814 18.4339205 3.38698203 18.9349953 3.65289767 18.6210226 4.30391041 18.7088068 4.74219064 17.9392534 4.45384838 17.1075461 3.86819322 16.2700721 4.25264956 15.6933876 4.46538207 15.5799729 5.1522774 15.8035984 5.67001194 16.5308616 6.44469147 17.6733377 6.59783325 18.4653178 7.29113619 19.3732755 8.1619298 19.2630647 9.7740834 18.3717667 10.6115575 17.3369384 11.4599245 15.7811717 11.4150712 14.6412587 10.8095525 14.0498367 10.5436368 14.3894398 9.78818013 14.2875589 9.29351297 15.1615563 9.67796931 16.1348716 10.3482049 17.1190798 9.93299202 17.7297246 9.71192962 17.9110599 8.94814302 17.6336106 8.40541882 16.8672609 7.60767191 15.6222631 7.48016056 14.8956406 6.6343566 14.03574 5.62451794 14.3612463 3.88228995 15.5434496 3.27420817M30.073977 4.50190542C30.871724 2.77377416 33.448863 2.49632484 34.7297433 3.82013617 34.9251753 4.24752348 34.7752373 4.7280939 34.7694705 5.18047087 34.1895822 4.84407157 33.6353243 4.43975165 32.9932822 4.23855283 32.2179619 4.04055781 31.4375155 4.58071897 31.1741629 5.29965233 30.769843 6.3402475 30.769843 7.51412087 31.0415255 8.5861133 31.2452874 9.43191725 32.1019842 10.1841702 33.009942 9.96951537 33.6750514 9.75165678 34.2318724 9.31017275 34.8316243 8.96223976 34.8514879 9.39795694 34.8540509 9.83367413 34.8348281 10.2719544 33.6154607 11.6636863 30.9338777 11.627163 30.0624434 9.86443064 29.28456 8.20422 29.2903269 6.15955302 30.073977 4.50190542M67.4489004 4.20715556C68.1646299 3.53692 69.0328605 2.79620078 70.0933192 2.9941958 71.3299872 3.05891262 72.1072297 4.31224029 72.1213265 5.46048324 72.1751503 7.34431931 72.1245303 9.23135919 72.1302971 11.1151953 71.7112397 11.1094284 71.2953861 11.1010985 70.8827363 11.0921279 70.8346792 9.49150799 70.8936292 7.89024732 70.8603097 6.29219046 70.8289124 5.59376143 70.701401 4.73386075 70.0228356 4.36862722 69.0296567 3.93034699 68.1755229 4.87226503 67.6750889 5.61042121 67.5052873 7.43530732 67.6834187 9.27941624 67.5905085 11.1119915 67.1746548 11.1094284 66.7613643 11.1094284 66.3487145 11.1094284 66.3314139 8.45027206 66.3371808 5.78919341 66.3455107 3.13003704 66.7190741 3.13260008 67.0977636 3.13836693 67.4770938 3.14669681 67.471327 3.41004941 67.4540265 3.94188068 67.4489004 4.20715556M37.0070064 3.15246366C37.42286 3.14413377 37.8412767 3.13836693 38.2628971 3.13260008 38.2603341 5.7975233 38.2936536 8.46436879 38.2430336 11.131855 37.8329468 11.1177583 37.42286 11.1036616 37.0153363 11.0895649 36.9698423 8.44450521 36.9897059 5.80008634 37.0070064 3.15246366M25.1747217 9.76319047C24.1283597 10.4417559 22.6347468 9.74332689 22.3829279 8.54958995 22.0606253 7.13799441 21.9952678 5.12152089 23.5029774 4.36029734 24.1706499 4.03479097 25.0702777 4.16486536 25.5707117 4.73642379 26.1903272 5.370136 26.2691408 6.31525784 26.2947712 7.15465419 26.2947712 8.1196396 26.0660197 9.22815539 25.1747217 9.76319047zM27.6499798 6.87784562C27.6128157 5.76612603 27.3757343 4.55572931 26.5497939 3.74965251 25.6783595 2.94613876 24.3660819 2.84169478 23.2543623 3.10184358 20.7624444 3.8457666 20.493325 7.05341401 21.1296002 9.17176846 21.7440896 11.4547984 25.0279875 11.9436987 26.5581238 10.3174484 27.4263544 9.40949063 27.6615135 8.08824234 27.6499798 6.87784562L27.6499798 6.87784562zM61.9383595 9.49727483C61.2623571 10.2098006 59.9641761 10.1957039 59.3138042 9.46011072 58.7339159 8.85779578 58.6378018 7.96970163 58.6204753 7.17451776 58.6179382 6.18197964 58.8043995 5.01066932 59.7379877 4.45961522 60.4389797 4.00083066 61.4776526 4.12257516 62.0261437 4.7703841 62.6367885 5.39832946 62.699583 6.3434513 62.7194466 7.17451776 62.6880493 7.98956521 62.5861684 8.91994956 61.9383595 9.49727483zM63.2737045 4.09181866C62.4791614 3.01085557 60.9656849 2.80196763 59.7379877 3.08774684 58.5019605 3.38698203 57.6420598 4.51343911 57.4242012 5.72896192 57.1640525 7.14119821 57.1691785 8.72451758 57.9419358 9.98361211 58.8409229 11.3612473 60.8324067 11.5791059 62.2241387 10.8890068 63.3102278 10.339875 63.8510298 9.13204131 64.0035308 7.98123532 64.1733323 6.65998702 64.0599177 5.20866433 63.2737045 4.09181866L63.2737045 4.09181866zM2.21498895 10.0630664C1.24744048 9.87019748 1.08084274 8.47590248 1.80490218 7.90754786 2.51742794 7.34752312 3.47920955 7.54808118 4.31924666 7.51155782 4.31924666 8.02608856 4.3218097 8.54126006 4.33078035 9.0557908 3.75665888 9.58185523 3.07745267 10.3174484 2.21498895 10.0630664zM5.58410803 5.45215335C5.59820476 4.52689508 5.1733805 3.49783361 4.23722931 3.17809408 3.06655974 2.79876383 1.68572071 2.96023549.667552167 3.65866451.209408359 3.94188068.441363686 4.55829235.36767622 4.9914465 1.38007792 4.62877602 2.47513774 3.83679595 3.57852744 4.33210387 4.35897382 4.7248901 4.26862657 5.7097391 4.37307055 6.43956539 3.21649772 6.46199201 1.93753962 6.33448065.936671607 7.02778359-.494787508 7.96137174-.240405562 10.5212102 1.39161161 11.0953317 2.47513774 11.5477087 3.64324426 11.0697013 4.44355421 10.3059147 4.46662159 10.5122396 4.50634875 10.9255301 4.52557156 11.131855 4.87670836 11.1177583 5.22464135 11.1068654 5.57513738 11.0978947 5.59500096 9.21726246 5.61742758 7.33342638 5.58410803 5.45215335L5.58410803 5.45215335zM42.6610777 10.0598626C41.6909662 9.86763444 41.5301353 8.46180575 42.2625246 7.89857721 42.9782542 7.35008616 43.9317059 7.54808118 44.7685392 7.51155782 44.7685392 8.02929236 44.7685392 8.54638614 44.7775099 9.06412069 44.2027476 9.58762207 43.5241822 10.3174484 42.6610777 10.0598626zM46.013537 5.16957794C45.9879066 4.26418325 45.4278818 3.35045868 44.5173611 3.12170715 43.3063236 2.8186274 41.8831944 2.99675884 40.9130829 3.82590302 40.8310655 4.20715556 40.7971052 4.59545647 40.8144057 4.99400954 41.8268074 4.62877602 42.9186634 3.83999975 44.0220531 4.32890007 44.8082664 4.71656021 44.7179191 5.7065353 44.8223631 6.43956539 43.6625865 6.46519581 42.3810653 6.33191761 41.3801973 7.03355044 39.954505 7.96970163 40.2146538 10.5212102 41.8409042 11.0953317 42.9244303 11.5477087 44.0925368 11.0697013 44.8934875 10.3091185 44.9159141 10.5122396 44.9556413 10.9255301 44.9748641 11.129292 45.3227971 11.1177583 45.6739339 11.1094284 46.0244299 11.0978947 46.0359636 9.12371142 46.0923505 7.14376126 46.013537 5.16957794L46.013537 5.16957794z" transform="translate(87.395 106.092)"></path>
  </g>
</svg>